<?xml version="1.0" standalone="no"?>
<!DOCTYPE svg PUBLIC "-//W3C//DTD SVG 20010904//EN"
 "http://www.w3.org/TR/2001/REC-SVG-20010904/DTD/svg10.dtd">
<svg version="1.0" xmlns="http://www.w3.org/2000/svg"
 width="169.000000pt" height="169.000000pt" viewBox="0 0 169.000000 169.000000"
 preserveAspectRatio="xMidYMid meet">
<metadata>
Created by potrace 1.11, written by Peter Selinger 2001-2013
</metadata>
<g transform="translate(0.000000,169.000000) scale(0.100000,-0.100000)"
fill="#000000" stroke="none">
<path d="M20 845 l0 -845 825 0 825 0 0 845 0 845 -825 0 -825 0 0 -845z m961
529 c71 -21 122 -47 188 -96 l53 -40 -30 -30 -29 -30 -63 46 c-147 108 -355
115 -509 17 -118 -76 -199 -211 -208 -348 -9 -137 27 -239 123 -342 132 -143
346 -185 519 -102 118 56 126 34 -95 256 l-195 195 319 0 319 0 -6 -77 c-6
-99 -26 -161 -78 -247 l-41 -68 71 -72 71 -72 -30 -29 -30 -29 -73 71 -72 72
-58 -38 c-210 -139 -486 -111 -668 69 -114 113 -166 248 -156 410 13 227 157
410 377 481 72 24 226 25 301 3z"/>
<path d="M1060 695 l125 -126 22 28 c29 35 70 137 74 183 l4 35 -175 3 -175 2
125 -125z"/>
</g>
</svg>
